<svg width="31" height="44" viewBox="0 0 31 44" fill="none" xmlns="http://www.w3.org/2000/svg">
<g clip-path="url(#clip0_28_156)">
<path d="M22.0417 1.09964C22.4028 1.54469 22.5869 2.14518 22.9551 3.34616L31 29.5827C27.9782 28.0259 24.7349 26.9358 21.382 26.3499L16.144 8.77692C16.1022 8.63676 16.0158 8.5138 15.8978 8.42642C15.7798 8.33904 15.6364 8.29195 15.4892 8.29218C15.3419 8.29241 15.1987 8.33995 15.081 8.4277C14.9632 8.51544 14.8773 8.63867 14.8359 8.77896L9.66134 26.3411C6.29329 26.9242 3.03507 28.0161 0 29.5786L8.08422 3.34003C8.45368 2.14121 8.63846 1.54168 8.99957 1.09748C9.31835 0.705341 9.73299 0.400807 10.204 0.212907C10.7374 0 11.3689 0 12.6318 0H18.4059C19.6705 0 20.3027 0 20.8367 0.213268C21.308 0.401652 21.7229 0.706818 22.0416 1.09964" fill="black"/>
<path d="M23.0044 30.8313C21.6782 31.957 19.0311 32.7248 15.9819 32.7248C12.2397 32.7248 9.10297 31.5682 8.27069 30.0127C7.97304 30.9041 7.90632 31.9245 7.90632 32.5762C7.90632 32.5762 7.71027 35.7768 9.95256 38.0029C9.95256 36.847 10.8965 35.9099 12.0608 35.9099C14.0564 35.9099 14.054 37.6384 14.0523 39.0407L14.0522 39.1659C14.0522 41.2944 15.3624 43.119 17.2261 43.8881C16.9393 43.3019 16.7907 42.6587 16.7916 42.007C16.7916 39.977 17.992 39.2212 19.3872 38.3428C20.4973 37.6438 21.7307 36.8672 22.5807 35.3094C23.0384 34.4702 23.2775 33.5306 23.276 32.5762C23.276 31.9679 23.1808 31.3816 23.0044 30.8313Z" fill="#FF5D01"/>
</g>
<defs>
<clipPath id="clip0_28_156">
<rect width="31" height="44" fill="white"/>
</clipPath>
</defs>
</svg>
