<svg width="46" height="65" viewBox="0 0 46 65" fill="none" xmlns="http://www.w3.org/2000/svg">
<path d="M22.972 64.8358L4.25176 59.6283L0.0799561 12.7418H45.92L41.7439 59.6211L22.972 64.8358Z" fill="#264DE4"/>
<path d="M38.1687 56.6359L41.7373 16.5754H23V60.8497L38.1687 56.6359Z" fill="#2965F1"/>
<path d="M9.64364 33.965L10.1579 39.7154H23V33.965H9.64364ZM8.61008 22.326L9.13171 28.0764H23V22.326H8.61008ZM23 48.8995L22.9748 48.9061L16.5837 47.1769L16.1751 42.5907H10.4143L11.2182 51.6197L22.9736 54.8895L23 54.8824V48.8995Z" fill="#EBEBEB"/>
<path d="M36.3197 33.9649L37.3556 22.326H22.9802V28.0764H31.0665L30.5443 33.9649H22.9802V39.7154H30.0468L29.3805 47.1733L22.98 48.9043V54.8868L34.7447 51.6197L34.831 50.6482L36.1797 35.5091L36.3197 33.9649Z" fill="white"/>
</svg>
