<svg width="53" height="53" viewBox="0 0 53 53" fill="none" xmlns="http://www.w3.org/2000/svg">
<path d="M52.0002 24.1394L28.8597 0.999465C27.528 -0.333155 25.3666 -0.333155 24.0327 0.999465L19.228 5.80513L25.3233 11.9006C26.7403 11.4224 28.3643 11.7431 29.4933 12.8721C30.6281 14.0083 30.9464 15.6461 30.4564 17.0677L36.331 22.9428C37.7522 22.4528 39.3925 22.7694 40.5269 23.9063C42.114 25.4921 42.114 28.0629 40.5269 29.6495C40.1498 30.0269 39.702 30.3262 39.2091 30.5304C38.7163 30.7346 38.188 30.8398 37.6545 30.8398C37.121 30.8398 36.5928 30.7346 36.0999 30.5304C35.6071 30.3262 35.1593 30.0269 34.7821 29.6495C34.2156 29.0825 33.8295 28.3605 33.6722 27.5745C33.515 26.7886 33.5937 25.9736 33.8984 25.2322L28.4201 19.754L28.4193 34.1722C28.8168 34.3679 29.1797 34.6271 29.4937 34.9397C31.0799 36.5255 31.0799 39.0954 29.4937 40.6846C27.9071 42.2704 25.3355 42.2704 23.7506 40.6846C22.1644 39.0959 22.1644 36.5259 23.7506 34.9397C24.131 34.5595 24.5829 34.2584 25.0802 34.0538V19.5021C24.5823 19.2983 24.1302 18.997 23.7506 18.6157C22.549 17.415 22.2597 15.6516 22.876 14.1754L16.8667 8.16597L0.999747 24.0323C0.359609 24.6726 0 25.541 0 26.4465C0 27.3519 0.359609 28.2203 0.999747 28.8606L24.1406 52.0005C25.4732 53.3332 27.6338 53.3332 28.9685 52.0005L52.0006 28.9681C52.6406 28.3276 53.0001 27.4591 53 26.5537C52.9999 25.6482 52.6403 24.7798 52.0002 24.1394Z" fill="#F34F29"/>
</svg>
