<svg width="51" height="53" viewBox="0 0 51 53" fill="none" xmlns="http://www.w3.org/2000/svg">
<path d="M25.5 4.41669C22.7094 4.41669 19.9461 4.98789 17.368 6.09768C14.7898 7.20747 12.4472 8.83412 10.474 10.8847C6.48883 15.0262 4.25 20.6432 4.25 26.5C4.25 36.2609 10.3488 44.5421 18.785 47.4792C19.8475 47.6559 20.1875 46.9713 20.1875 46.375V42.6429C14.3013 43.9679 13.0475 39.6838 13.0475 39.6838C12.07 37.1221 10.6888 36.4375 10.6888 36.4375C8.755 35.0684 10.8375 35.1125 10.8375 35.1125C12.9625 35.2671 14.0887 37.3871 14.0887 37.3871C15.9375 40.7438 19.0612 39.75 20.2725 39.22C20.4638 37.7846 21.0163 36.8129 21.6112 36.2609C16.8938 35.7088 11.9425 33.8096 11.9425 25.3959C11.9425 22.9446 12.75 20.9792 14.1313 19.4113C13.9187 18.8592 13.175 16.5625 14.3438 13.5813C14.3438 13.5813 16.1287 12.985 20.1875 15.8338C21.8663 15.3479 23.6938 15.105 25.5 15.105C27.3062 15.105 29.1337 15.3479 30.8125 15.8338C34.8713 12.985 36.6562 13.5813 36.6562 13.5813C37.825 16.5625 37.0812 18.8592 36.8688 19.4113C38.25 20.9792 39.0575 22.9446 39.0575 25.3959C39.0575 33.8317 34.085 35.6867 29.3463 36.2388C30.1113 36.9234 30.8125 38.2704 30.8125 40.3242V46.375C30.8125 46.9713 31.1525 47.6779 32.2362 47.4792C40.6725 44.52 46.75 36.2609 46.75 26.5C46.75 23.6 46.2004 20.7284 45.1324 18.0491C44.0645 15.3698 42.4993 12.9354 40.526 10.8847C38.5528 8.83412 36.2102 7.20747 33.632 6.09768C31.0539 4.98789 28.2906 4.41669 25.5 4.41669Z" fill="white"/>
</svg>
