<svg width="47" height="67" viewBox="0 0 47 67" fill="none" xmlns="http://www.w3.org/2000/svg">
<path d="M46.9183 13.1339L42.6514 61.4555L23.4714 66.8307L4.34422 61.4629L0.0817261 13.1339H46.9183Z" fill="#E44D26"/>
<path d="M23.5 62.722L38.9984 58.3785L42.6446 17.0854H23.5V62.722Z" fill="#F16529"/>
<path d="M15.2052 28.9403H23.5V23.0129H8.79724L8.93751 24.6031L10.3787 40.9374H23.5V35.01H15.7411L15.2052 28.9403ZM16.5267 43.9012H10.6407L11.4621 53.208L23.473 56.5785L23.5 56.571V50.4041L23.4743 50.4109L16.9442 48.6285L16.5267 43.9012Z" fill="#EBEBEB"/>
<path d="M23.4798 40.9374H30.7L30.0192 48.6248L23.4796 50.4091V56.5757L35.5 53.208L35.5882 52.2066L36.9662 36.6017L37.1092 35.01H23.4798V40.9374ZM23.4798 28.9258V28.9403H37.6428L37.7603 27.6081L38.0276 24.6031L38.1677 23.0129H23.4798V28.9258Z" fill="white"/>
</svg>
