<svg width="51" height="35" viewBox="0 0 51 35" fill="none" xmlns="http://www.w3.org/2000/svg">
<g clip-path="url(#clip0_15_40)">
<path d="M15.1715 23.0957L16.7214 28.1589C17.0697 29.3084 17.2149 30.1109 17.1567 30.5683C18.0044 28.2826 18.5967 25.7917 18.9337 23.0957H20.7973C19.9959 27.4849 18.9391 30.6743 17.6271 32.664C16.6049 34.1973 15.4851 34.9639 14.2657 34.9639C13.9405 34.9639 13.5397 34.865 13.0641 34.6687V33.6106C13.2965 33.6449 13.5691 33.6633 13.8827 33.6633C14.4514 33.6632 14.9102 33.5046 15.2589 33.1877C15.6765 32.8017 15.8856 32.3679 15.8856 31.887C15.8856 31.5587 15.7225 30.8848 15.3979 29.8655L13.2384 23.0957H15.1715ZM3.30932 19.9837L6.14819 28.7042H6.16572L9.02202 19.9837H11.3557C11.8667 24.3085 12.1685 28.2655 12.2611 31.8522H10.2936C10.2243 28.4994 10.0328 25.3464 9.71909 22.3932H9.70195L6.7059 31.8522H5.20758L2.22966 22.3932H2.21213C1.99132 25.2294 1.852 28.3824 1.79416 31.8522H0C0.115945 27.6322 0.406107 23.6764 0.870486 19.9837H3.30932Z" fill="#00758F"/>
<path d="M35.1121 19.8076C38.1658 19.8076 39.6927 21.7718 39.6927 25.6983C39.6927 27.832 39.2335 29.4437 38.316 30.5325C38.1507 30.7315 37.9679 30.9034 37.7755 31.0627L39.9365 32.1384L39.9344 32.1383L39.1671 33.4723L36.3528 31.8191C35.8863 31.9582 35.3733 32.0277 34.8138 32.0277C33.3144 32.0277 32.1944 31.5878 31.4539 30.7089C30.641 29.7368 30.2348 28.2063 30.2348 26.1201C30.2348 23.9985 30.6932 22.3929 31.611 21.3027C32.447 20.3054 33.6142 19.8076 35.1121 19.8076ZM25.7608 19.8247C26.8522 19.8247 27.8446 20.1188 28.7385 20.7048L28.2845 21.7234C27.5196 21.396 26.7654 21.2317 26.0218 21.2317C25.4183 21.2317 24.9533 21.3779 24.6292 21.6721C24.3033 21.9638 24.1017 22.339 24.1017 22.7965C24.1017 23.4995 24.5991 24.1092 25.5176 24.6243C25.8185 24.7899 26.1184 24.9574 26.4172 25.1268L26.4857 25.1656L26.5201 25.1851L26.5887 25.2239L26.623 25.2433L26.6915 25.2822C27.3868 25.6769 28.041 26.0535 28.041 26.0535C28.9594 26.7099 29.4172 27.4097 29.4172 28.5623C29.4172 29.5689 29.0509 30.3951 28.3205 31.0417C27.5897 31.6853 26.6079 32.0081 25.3783 32.0081C24.2283 32.0081 23.1138 31.6366 22.0342 30.8999L22.5392 29.8804C23.4683 30.3492 24.309 30.5834 25.0639 30.5834C25.7719 30.5834 26.3262 30.4242 26.7271 30.1099C27.1272 29.7933 27.367 29.3518 27.367 28.7919C27.367 28.0872 26.8801 27.4847 25.9869 26.9794C25.7073 26.8239 25.4286 26.6669 25.1507 26.5083L25.0822 26.4693C24.9565 26.3978 24.8299 26.3254 24.7059 26.2545L24.6387 26.216C24.0355 25.8706 23.5141 25.5689 23.5141 25.5689C22.6212 24.9113 22.1734 24.2058 22.1734 23.0432C22.1734 22.0818 22.5073 21.3047 23.1741 20.7135C23.8426 20.121 24.7048 19.8247 25.7608 19.8247ZM43.2816 19.9836V30.3921H46.9908V31.8521H41.4004V19.9837L43.2816 19.9836ZM49.0519 30.3966V30.6434H48.6441V31.8508H48.3324V30.6434H47.9087V30.3966H49.0519ZM49.805 30.3966L50.1966 31.3879L50.5562 30.3966H50.9982V31.8508H50.7044V30.7441L50.295 31.8508H50.0831L49.673 30.7441H49.6573V31.8508H49.3793V30.3966H49.805ZM34.9201 21.2672C33.1205 21.2672 32.2203 22.7624 32.2203 25.751C32.2203 27.4629 32.4588 28.7042 32.935 29.4779C33.3761 30.194 34.0669 30.5513 35.0075 30.5513C36.8071 30.5513 37.7072 29.0444 37.7072 26.032C37.7072 24.3441 37.4687 23.1133 36.993 22.3392C36.5515 21.6248 35.861 21.2672 34.9202 21.2672" fill="#F29111"/>
<path d="M30.2034 0.735408C30.8003 -0.741411 32.8876 0.376984 33.6977 0.892858C33.8962 1.02193 34.1239 1.29461 34.3515 1.39539C34.7066 1.40943 35.0614 1.43741 35.4171 1.45236C36.0843 1.61021 36.7092 1.73918 37.235 2.04064C39.6782 3.48928 41.2687 4.96549 42.7324 7.40386C43.0452 7.92034 43.2015 8.47923 43.457 9.03813C43.8116 9.87121 44.21 10.7457 44.6216 11.5335C44.8059 11.9069 44.9484 12.3222 45.2043 12.6376C45.3042 12.7818 45.588 12.8243 45.7577 12.9105C46.2266 13.1549 46.7948 13.3404 47.2359 13.6272C48.0595 14.1443 48.8559 14.7605 49.5799 15.3913C49.8497 15.6348 50.0336 15.9795 50.2907 16.237V16.367C50.0625 16.4375 49.8351 16.5097 49.6075 16.5675C49.1103 16.6961 48.6699 16.667 48.1876 16.7957C47.8896 16.8827 47.5196 16.9976 47.207 17.0268L47.2359 17.056C47.4197 17.5851 48.4146 18.0153 48.8697 18.3317C49.4223 18.7332 49.9344 19.2202 50.3466 19.7795C50.4889 19.9222 50.6313 20.0521 50.7729 20.1944C50.8719 20.3386 50.8998 20.5252 51 20.6537V20.6972C50.889 20.6578 50.8092 20.5826 50.7336 20.504L50.6885 20.4566C50.6434 20.4094 50.5979 20.3631 50.546 20.3249C50.2324 20.1093 49.921 19.8513 49.6075 19.6509C49.0684 19.3065 48.4431 19.1066 47.8896 18.7609C47.5766 18.5602 47.2783 18.3317 46.98 18.102C46.7095 17.9008 46.4117 17.5142 46.2418 17.2274C46.1417 17.069 46.1279 16.8827 46.0136 16.7681C46.034 16.5767 46.2082 16.5198 46.384 16.4731L46.4244 16.4623C46.4851 16.4465 46.5445 16.4307 46.5963 16.4097C47.3348 16.094 48.2152 15.9795 49.3522 16.0081C49.3093 15.7207 48.5989 15.3626 48.3721 15.1905C47.9169 14.8602 47.4349 14.5155 46.952 14.2148C46.6961 14.0574 46.2551 13.9424 45.9716 13.8138C45.588 13.6559 44.7355 13.4982 44.5229 13.1975C44.1618 12.7236 43.9024 12.1582 43.6506 11.5872L43.5821 11.4314L43.5134 11.2756C43.2157 10.588 42.846 9.87101 42.5476 9.1669C42.3917 8.82342 42.32 8.52196 42.1492 8.19251C41.1126 6.17094 39.5783 4.4784 37.7181 3.2881C37.1068 2.90079 36.4252 2.54237 35.6727 2.29877C35.2463 2.1691 34.7345 2.24081 34.2802 2.14132H33.9811C33.7259 2.06892 33.5129 1.79654 33.3138 1.65293C32.874 1.35227 32.4335 1.15039 31.9076 0.935881C31.7233 0.849835 31.1971 0.649462 31.0134 0.807213C30.8996 0.835995 30.842 0.879219 30.814 0.994147C30.7008 1.16564 30.8003 1.42398 30.8707 1.58213C31.0841 2.04044 31.3821 2.31281 31.6527 2.70012C31.8933 3.0436 32.1923 3.43091 32.3629 3.80438C32.731 4.60717 32.9025 5.49661 33.2436 6.2993C33.3701 6.60117 33.5703 6.94465 33.7544 7.21693C33.9105 7.43304 34.1943 7.58929 34.2802 7.86287C34.4513 8.14969 34.024 9.0961 33.9251 9.39665C33.555 10.5727 33.6267 12.2075 34.0529 13.2269L34.0756 13.2807L34.0983 13.3351C34.2539 13.7085 34.4204 14.1105 34.8341 14.2149C34.8626 14.1864 34.8341 14.2014 34.8906 14.1864C34.9907 13.3974 35.0189 12.6375 35.289 12.0202C35.4451 11.6341 35.7568 11.3613 35.9704 11.0462C36.1129 11.132 36.1129 11.3909 36.1978 11.5621C36.3826 12.0064 36.5811 12.4935 36.8091 12.9391C37.2768 13.8567 37.8032 14.7463 38.3995 15.549C38.5992 15.8358 38.8826 16.1514 39.1382 16.4096C39.2521 16.5096 39.3796 16.5673 39.4651 16.696H39.493V16.7393C39.0669 16.5812 38.7968 16.1373 38.4569 15.8782C37.817 15.3911 37.0507 14.6596 36.6096 13.9577C36.4252 13.5547 36.2257 13.1685 36.0269 12.7676V12.7386C35.942 12.8531 35.9704 12.9669 35.9279 13.1402C35.7434 13.8567 35.8855 14.6741 35.2463 14.9319C34.5217 15.2337 33.9812 14.4448 33.7544 14.0863C33.0297 12.8963 32.8312 10.8887 33.3423 9.26819C33.4558 8.90946 33.4712 8.47923 33.6695 8.19281C33.6266 7.93388 33.4284 7.86307 33.3138 7.70442C33.1149 7.43324 32.9447 7.11734 32.789 6.81618C32.49 6.2279 32.2772 5.52499 32.0502 4.89409C31.9504 4.63645 31.9218 4.37782 31.8223 4.13392C31.6526 3.76165 31.3397 3.38819 31.0983 3.05885C30.7715 2.58549 29.8197 1.66807 30.2034 0.735408ZM34.8623 3.54494C34.9002 3.58324 34.9461 3.61674 34.9935 3.64973L35.0507 3.68925C35.1269 3.7424 35.2007 3.79836 35.2459 3.87458C35.3176 3.97547 35.331 4.07505 35.4168 4.17614C35.4168 4.52082 35.3176 4.74998 35.1173 4.89279C35.1173 4.89279 35.1036 4.90783 35.0896 4.92187C34.976 4.69211 34.8765 4.46356 34.7622 4.234C34.6213 4.03363 34.4222 3.87468 34.3075 3.64572H34.2799V3.61694C34.4513 3.57432 34.6213 3.54494 34.8623 3.54494Z" fill="#00758F"/>
</g>
<defs>
<clipPath id="clip0_15_40">
<rect width="51" height="35" fill="white"/>
</clipPath>
</defs>
</svg>
