<svg width="36" height="36" viewBox="0 0 36 36" fill="none" xmlns="http://www.w3.org/2000/svg">
<path d="M9.63225 17.163C12.319 18.1063 15.153 18.5608 18 18.5051C20.8471 18.5605 23.6811 18.1056 26.3678 17.1619C28.4648 16.344 29.2084 15.435 29.2084 14.9119V10.9125C28.475 11.4031 27.6885 11.8092 26.8639 12.123C24.0215 13.1406 21.0187 13.6368 18 13.5877C14.9816 13.6351 11.9793 13.1397 9.13613 12.1252C8.31098 11.8116 7.52438 11.4047 6.79163 10.9125V14.9062C6.79163 15.4395 7.5375 16.344 9.63225 17.163ZM9.63225 24.7061C10.5813 25.0681 11.56 25.347 12.5573 25.5397C14.3506 25.8859 16.1735 26.0566 18 26.0494C19.8265 26.057 21.6493 25.8867 23.4427 25.5408C24.44 25.3481 25.4187 25.0692 26.3678 24.7072C28.4648 23.8894 29.2084 22.9804 29.2084 22.4572V18.6435C28.6024 19.0082 27.9654 19.3187 27.3049 19.5716C24.3188 20.6286 21.1671 21.1404 18 21.0825C14.8326 21.1385 11.6808 20.6249 8.69513 19.566C8.03527 19.3116 7.39844 19.001 6.79163 18.6379V22.455C6.79163 22.9792 7.5375 23.8849 9.63225 24.7061ZM18 33.75C24.1875 33.75 29.2084 31.788 29.2084 29.3692V26.1776C28.6571 26.5099 28.0795 26.7966 27.4815 27.0349L27.3049 27.1057C24.3194 28.1658 21.1676 28.6806 18 28.6256C14.8322 28.683 11.68 28.1682 8.69513 27.1057L8.5185 27.0349C7.92048 26.7966 7.34293 26.5099 6.79163 26.1776V29.3692C6.79163 31.788 11.8125 33.75 18 33.75Z" fill="#FF0000"/>
<path d="M18 11.0115C24.1902 11.0115 29.2084 9.05017 29.2084 6.63075C29.2084 4.21133 24.1902 2.25 18 2.25C11.8098 2.25 6.79163 4.21133 6.79163 6.63075C6.79163 9.05017 11.8098 11.0115 18 11.0115Z" fill="#FF0000"/>
</svg>
