<svg width="46" height="46" viewBox="0 0 46 46" fill="none" xmlns="http://www.w3.org/2000/svg">
<path d="M37.8212 14.9095C37.3316 14.7208 36.8379 14.5459 36.3405 14.385C36.4241 14.0013 36.501 13.6222 36.5693 13.2498C37.6902 7.13423 36.9574 2.2074 34.4545 0.585248C32.0548 -0.969851 28.1303 0.651693 24.1667 4.52874C23.7761 4.91151 23.3941 5.30532 23.0212 5.7098C22.7715 5.44085 22.5175 5.17711 22.2591 4.91872C18.1051 0.773273 13.9414 -0.973891 11.4412 0.652904C9.04367 2.21285 8.33373 6.84442 9.34285 12.6403C9.44325 13.2143 9.55661 13.7854 9.68282 14.3529C9.09345 14.5412 8.52473 14.7415 7.98046 14.9548C3.11021 16.8633 0 19.8541 0 22.9565C0 26.1606 3.33895 29.3744 8.41153 31.3231C8.82279 31.4804 9.23745 31.6262 9.65515 31.7603C9.51954 32.3716 9.3991 32.987 9.29398 33.6059C8.33193 39.3012 9.0832 43.8233 11.4743 45.3733C13.9439 46.9741 18.089 45.3289 22.1249 41.3634C22.4522 41.041 22.7722 40.7094 23.0848 40.3691C23.4887 40.8071 23.9033 41.2323 24.3282 41.6443C28.2379 45.4254 32.099 46.9522 34.4878 45.398C36.9551 43.7926 37.757 38.9346 36.7159 33.0242C36.6339 32.5612 36.5419 32.1004 36.4401 31.6424C36.7312 31.5455 37.0169 31.4457 37.2954 31.3419C42.5689 29.3782 46 26.2034 46 22.9565C46 19.8428 42.7893 16.8318 37.8212 14.9095ZM36.6775 29.2455C36.4257 29.339 36.1681 29.4295 35.9048 29.5172C35.3226 27.4456 34.537 25.2431 33.5755 22.9672C34.493 20.7456 35.2484 18.5711 35.8142 16.5131C36.2848 16.6662 36.7414 16.8276 37.1817 16.9978C41.4385 18.645 44.0349 21.08 44.0349 22.9565C44.0349 24.9551 41.2307 27.5497 36.6775 29.2455ZM34.7882 33.4532C35.2486 36.0666 35.3142 38.4295 35.0092 40.2768C34.7354 41.9367 34.1845 43.0433 33.5031 43.4866C32.0536 44.4298 28.9534 43.2038 25.61 39.9701C25.2147 39.587 24.829 39.1917 24.4533 38.7845C25.7496 37.1913 27.0449 35.3391 28.3092 33.2819C30.533 33.0602 32.6339 32.6974 34.5392 32.2024C34.6332 32.6282 34.7162 33.0451 34.7882 33.4532ZM15.6824 43.3236C14.2661 43.8857 13.138 43.9018 12.4561 43.4599C11.0051 42.5194 10.4019 38.8884 11.2247 34.0179C11.3225 33.4423 11.4345 32.8699 11.5606 32.3014C13.4448 32.7699 15.5304 33.1068 17.7594 33.31C19.0323 35.3229 20.3651 37.1731 21.7082 38.7932C21.4228 39.1036 21.1306 39.4061 20.8319 39.7004C19.0471 41.4539 17.2586 42.6979 15.6824 43.3236ZM9.04727 29.2332C6.80423 28.3714 4.95183 27.2516 3.68216 26.0295C2.54114 24.9314 1.96524 23.841 1.96524 22.9565C1.96524 21.0738 4.46236 18.6725 8.62734 17.0404C9.1328 16.8425 9.6618 16.6557 10.2107 16.4804C10.7865 18.5848 11.5415 20.7852 12.4527 23.0102C11.5296 25.2681 10.7638 27.5036 10.1825 29.6329C9.80126 29.5101 9.42272 29.3768 9.04727 29.2332ZM11.2714 12.216C10.407 7.25036 10.9811 3.50459 12.4259 2.56446C13.9648 1.56314 17.3677 2.9908 20.9544 6.57036C21.1883 6.8043 21.4184 7.04299 21.6446 7.28631C20.3081 8.89937 18.9876 10.7358 17.726 12.7368C15.5626 12.9622 13.4917 13.3241 11.5877 13.809C11.4704 13.2812 11.3649 12.7498 11.2714 12.216ZM31.1138 17.7232C30.6641 16.8502 30.1977 15.9881 29.7149 15.1375C31.1826 15.3462 32.5888 15.6231 33.9094 15.9615C33.513 17.3898 33.0188 18.8829 32.4372 20.4138C32.012 19.5071 31.5708 18.6101 31.1138 17.7232ZM23.0221 8.86504C23.9284 9.96876 24.8362 11.2009 25.7291 12.5379C23.9178 12.4417 22.1036 12.4413 20.2923 12.5367C21.1861 11.212 22.1016 9.98148 23.0221 8.86504ZM14.8785 17.7382C14.4272 18.6179 13.9942 19.5093 13.5799 20.4118C13.0078 18.8863 12.5181 17.3864 12.1183 15.9379C13.4307 15.6079 14.8303 15.3381 16.2887 15.1333C15.8006 15.989 15.3304 16.8577 14.8785 17.7382ZM16.3305 30.9365C14.8239 30.7475 13.4032 30.4916 12.0912 30.1705C12.4973 28.6962 12.9977 27.1643 13.5822 25.6062C13.9982 26.5093 14.4329 27.4013 14.8862 28.2814C15.3523 29.1861 15.835 30.0724 16.3305 30.9365ZM23.0764 37.2034C22.1449 36.074 21.2159 34.8245 20.3086 33.4806C21.1895 33.5194 22.0874 33.5392 23 33.5392C23.9376 33.5392 24.8644 33.5156 25.7767 33.4699C24.881 34.838 23.9766 36.0894 23.0764 37.2034ZM32.4557 25.5266C33.0706 27.1019 33.5888 28.6257 34.0003 30.0748C32.6666 30.4169 31.2266 30.6924 29.7094 30.897C30.1956 30.0307 30.6664 29.1536 31.1215 28.2662C31.5843 27.3643 32.0291 26.4508 32.4557 25.5266ZM29.4193 27.1627C28.7225 28.5231 27.9865 29.8578 27.2126 31.1646C25.8106 31.2762 24.4055 31.3317 23 31.3308C21.5684 31.3308 20.176 31.2807 18.8352 31.1829C18.041 29.8793 17.291 28.5423 16.5868 27.1748C15.8858 25.8147 15.2312 24.425 14.6242 23.009C15.2297 21.5926 15.8825 20.2023 16.581 18.8411L16.5808 18.8413C17.2791 17.4797 18.0231 16.1484 18.8113 14.8504C20.1793 14.734 21.5821 14.6734 22.9998 14.6734C24.424 14.6734 25.8288 14.7346 27.1964 14.8518C27.9767 16.1479 28.716 17.4746 29.4129 18.8294C30.1137 20.1876 30.775 21.5711 31.3959 22.9777C30.7814 24.3986 30.1221 25.7945 29.4193 27.1627ZM33.4731 2.49842C35.0134 3.49692 35.6124 7.52341 34.6446 12.8037C34.5826 13.1408 34.5137 13.4835 34.438 13.8317C32.5294 13.3365 30.457 12.9683 28.2873 12.7395C27.0234 10.7164 25.7136 8.87716 24.3989 7.2849C24.7435 6.91159 25.0962 6.54795 25.4569 6.19431C28.853 2.87266 32.027 1.56112 33.4731 2.49842ZM23 18.3396C25.2686 18.3396 27.1077 20.4067 27.1077 22.9565C27.1077 25.5062 25.2686 27.5733 23 27.5733C20.7314 27.5733 18.8923 25.5062 18.8923 22.9565C18.8923 20.4067 20.7314 18.3396 23 18.3396Z" fill="#00D8FF"/>
</svg>
