<svg width="39" height="39" viewBox="0 0 39 39" fill="none" xmlns="http://www.w3.org/2000/svg">
<path d="M15.6594 7.58034C7.30427 7.58034 0.531982 6.41278 0.531982 4.97983V33.0906C0.531982 34.5309 7.30427 35.6914 15.6594 35.6914C24.0142 35.6914 30.7865 34.5239 30.7865 33.0906V4.96338C30.7865 6.41308 24.0142 7.58034 15.6594 7.58034Z" fill="#D1D1D1"/>
<path d="M0.531982 4.96338V33.0906C0.531982 34.5309 7.30427 35.6914 15.6594 35.6914V7.58034C7.30427 7.58034 0.531982 6.41278 0.531982 4.96307V4.96338ZM28.6598 6.30553V34.4166C30.0081 34.0275 30.7865 33.5705 30.7865 33.0836V4.96307C30.7865 5.46063 30.0105 5.90943 28.6598 6.30553Z" fill="#ADADAD"/>
<path d="M30.7865 4.97037C30.7865 3.53133 24.0133 2.36377 15.6594 2.36377C7.30427 2.36377 0.531982 3.53133 0.531982 4.97037C0.531982 6.41032 7.30427 7.57789 15.6594 7.57789C24.013 7.57789 30.7865 6.41032 30.7865 4.97037ZM0.531982 22.648C0.531982 24.0883 7.30427 25.2485 15.6594 25.2485C24.0142 25.2485 30.7865 24.081 30.7865 22.648V24.776C30.7865 26.215 24.0142 27.3756 15.6594 27.3756C7.30458 27.3756 0.531982 26.208 0.531982 24.776V22.648ZM0.531982 13.2789C0.531982 14.7179 7.30427 15.8794 15.6594 15.8794C24.0142 15.8794 30.7865 14.7106 30.7865 13.2789V15.4056C30.7865 16.8459 24.0142 18.0064 15.6594 18.0064C7.30458 18.0064 0.531982 16.8389 0.531982 15.4059V13.2789Z" fill="#939699"/>
<path d="M38.5856 28.3634C38.5856 33.324 34.5653 37.3455 29.6047 37.3455C24.644 37.3455 20.6225 33.324 20.6225 28.3634C20.6225 23.4027 24.644 19.3821 29.6047 19.3821C34.5653 19.3821 38.5856 23.4027 38.5856 28.3634Z" fill="#ECEDF0"/>
<path d="M37.4778 28.3634C37.4778 32.7122 33.9526 36.2365 29.6047 36.2365C25.2559 36.2365 21.7315 32.7122 21.7315 28.3634C21.7315 24.0155 25.2559 20.4902 29.6047 20.4902C33.9526 20.4902 37.4778 24.0155 37.4778 28.3634Z" fill="#3FAA00"/>
<path d="M26.8317 32.2683L34.1524 28.0422L26.8314 23.8156L26.8317 32.2683Z" fill="white"/>
</svg>
