<svg width="63" height="63" viewBox="0 0 63 63" fill="none" xmlns="http://www.w3.org/2000/svg">
<g clip-path="url(#clip0_28_186)">
<path d="M42.7124 22.2509L35.7548 24.5228L29.702 27.1942L28.0087 27.6412C27.5772 28.0514 27.1252 28.467 26.6361 28.8878C26.0996 29.3505 25.5999 29.7711 25.2163 30.0761C24.7901 30.4128 24.1591 31.0439 23.8384 31.4434C23.3597 32.0427 22.9812 32.6794 22.8182 33.1684C22.5289 34.052 22.6709 34.9459 23.2284 35.7714C23.9436 36.8233 25.3687 37.896 27.0306 38.6269C27.8771 39.0004 29.3022 39.479 30.3752 39.747C32.1577 40.1993 35.6078 40.6886 37.5059 40.7622C37.8898 40.7781 38.4052 40.7781 38.4262 40.7622C38.4683 40.7358 38.7629 40.1732 39.1047 39.4737C40.2722 37.0916 41.1137 34.8564 41.5713 32.9476C41.8446 31.7908 42.0601 30.2498 42.2021 28.4249C42.2391 27.9148 42.2548 26.2057 42.2234 25.6272C42.1757 24.6808 42.0915 23.9128 41.9602 23.1608C41.9392 23.0503 41.9338 22.9504 41.9445 22.9451C41.9655 22.9294 42.0287 22.9086 42.8858 22.6611L42.7124 22.2509ZM41.1243 23.1819C41.1872 23.1819 41.3555 24.7961 41.3976 25.8163C41.4083 26.0321 41.403 26.174 41.3923 26.174C41.3502 26.174 40.5037 25.6746 39.899 25.2961C39.3729 24.9647 38.3738 24.302 38.2161 24.1757C38.1633 24.139 38.1687 24.1336 38.5999 23.9866C39.3308 23.7391 41.0665 23.1819 41.1243 23.1819ZM37.5797 24.3494C37.6271 24.3494 37.7481 24.4176 38.0373 24.5963C39.1204 25.2748 40.5932 26.0952 41.2242 26.3688C41.4187 26.4529 41.4397 26.4212 40.9925 26.7262C40.0357 27.3783 38.8418 28.02 37.3799 28.6667C37.222 28.7389 37.0624 28.8073 36.9013 28.8719C36.8909 28.8719 36.9226 28.7405 36.9644 28.5826C37.3168 27.2731 37.5166 25.9482 37.5272 24.8856C37.5326 24.3598 37.5326 24.3598 37.5797 24.3441C37.5691 24.3494 37.5744 24.3494 37.5797 24.3494ZM36.8488 24.628C36.8802 24.6595 36.8594 25.8373 36.8171 26.1583C36.7232 26.9336 36.5614 27.699 36.3334 28.4459C36.2756 28.6404 36.2228 28.8037 36.2124 28.8141C36.1911 28.8402 35.4709 28.1356 35.2343 27.862C34.8241 27.389 34.5034 26.9156 34.2666 26.4529C34.1457 26.2161 33.9565 25.7534 33.9722 25.7377C34.0564 25.6797 36.8278 24.607 36.8488 24.628ZM33.4094 25.9796C33.4147 25.9796 33.4201 25.9796 33.4254 25.9849C33.4358 25.9953 33.4725 26.0795 33.5042 26.174C33.6723 26.6317 34.0511 27.3048 34.3771 27.736C34.7346 28.2094 35.2029 28.7142 35.5918 29.0453C35.718 29.1505 35.8337 29.2504 35.8494 29.2664C35.8813 29.2978 35.8917 29.2925 35.0343 29.6185C34.0407 29.9973 32.9571 30.3758 31.7161 30.7756C31.4196 30.8712 31.1234 30.9676 30.8275 31.0649C30.78 31.0806 30.7958 31.0542 30.9327 30.8385C31.548 29.8763 32.4838 27.9883 33.0098 26.6527C33.0993 26.421 33.1886 26.1898 33.2043 26.1373C33.2256 26.0635 33.2517 26.0374 33.3202 26.0004C33.3569 25.99 33.3937 25.9796 33.4094 25.9796ZM32.3578 26.4159C32.3737 26.4266 32.1052 26.9891 31.8423 27.5046C31.3322 28.4984 30.7747 29.4768 30.0281 30.6651C29.9018 30.8702 29.7809 31.0596 29.7652 31.0806C29.7388 31.1174 29.7284 31.107 29.6442 30.944C29.4655 30.5916 29.3182 30.1393 29.2393 29.724C29.1602 29.3138 29.1762 28.5983 29.2655 28.1566C29.3339 27.8306 29.3286 27.8359 29.4865 27.7571C30.1594 27.4151 32.3365 26.3949 32.3578 26.4159ZM41.4293 26.784V27.0051C41.4293 28.1777 41.3031 29.7868 41.119 30.9597C41.0873 31.1648 41.0609 31.3329 41.0559 31.3382C41.0559 31.3382 40.9032 31.2964 40.7245 31.2436C39.8865 30.9773 39.0763 30.6303 38.3053 30.2074C37.7952 29.9291 37.0539 29.4715 37.0747 29.4504C37.08 29.4451 37.3011 29.3295 37.5587 29.1926C38.5895 28.6564 39.578 28.0778 40.4355 27.5046C40.7559 27.2888 41.2399 26.942 41.3452 26.8472L41.4293 26.784ZM28.3872 28.3407C28.4083 28.3407 28.4032 28.3828 28.3712 28.5722C28.345 28.7589 28.3258 28.9466 28.3137 29.1348C28.2716 29.9024 28.3979 30.4706 28.7764 31.2487C28.8816 31.4645 28.9658 31.6432 28.9605 31.6482C28.9237 31.6802 25.4425 32.7004 24.3485 33.0001C24.0225 33.0893 23.7385 33.1684 23.7172 33.1735C23.6807 33.1841 23.6754 33.1788 23.6911 33.0893C23.812 32.3163 24.401 31.3068 25.2214 30.4549C25.7683 29.8867 26.2048 29.5554 26.9515 29.1294C27.488 28.8244 28.3137 28.3671 28.3766 28.346C28.3766 28.3407 28.3819 28.3407 28.3872 28.3407ZM36.5912 29.8079C36.5965 29.8026 36.7225 29.871 36.8749 29.9605C38.0003 30.6126 39.5677 31.2173 40.9032 31.5276L41.0242 31.554L40.8558 31.6485C40.1566 32.0374 37.8583 32.9948 35.5079 33.873C35.1659 33.9992 34.8294 34.1255 34.766 34.1516C34.7032 34.178 34.6451 34.1937 34.6451 34.1886C34.6451 34.1833 34.7399 33.9992 34.8609 33.7731C35.5183 32.5425 36.1807 31.0439 36.5174 30.0026C36.5595 29.9024 36.5856 29.8132 36.5912 29.8079ZM35.7548 30.0814C35.7601 30.0868 35.718 30.1971 35.6656 30.3233C35.2079 31.433 34.6083 32.6426 33.8409 33.9992C33.6462 34.3463 33.4832 34.6252 33.4779 34.6252C33.4725 34.6252 33.3148 34.5304 33.1254 34.4148C32.0104 33.731 31.0219 32.8895 30.3752 32.0744L30.2803 31.9588L30.759 31.8273C32.4734 31.3592 33.9299 30.8545 35.3763 30.2341C35.5814 30.1499 35.7497 30.0814 35.7548 30.0814ZM40.9507 31.8954C40.956 32.0166 40.6877 33.1 40.4669 33.8834C40.2829 34.5408 40.1249 35.0562 39.8356 35.9659C39.7096 36.3657 39.5991 36.6971 39.5938 36.6971C39.5884 36.6971 39.557 36.6917 39.5256 36.6811C37.9636 36.3971 36.5648 36.0029 35.2503 35.4771C34.8819 35.3298 34.3561 35.093 34.3244 35.0669C34.314 35.0562 34.6297 34.9089 35.0292 34.7355C37.422 33.6887 39.9041 32.5004 40.7562 31.9903C40.8558 31.9271 40.9347 31.8954 40.9507 31.8954ZM28.9551 32.3059C28.9658 32.3166 28.298 33.2787 27.3617 34.5882C27.0357 35.0458 26.6571 35.582 26.5152 35.7821C26.3509 36.0137 26.1913 36.2486 26.0365 36.4866L25.8154 36.8284L25.5789 36.6286C25.3002 36.3971 24.8165 35.903 24.601 35.6297C24.1487 35.0669 23.8437 34.4726 23.7228 33.9311C23.6647 33.6785 23.6647 33.5523 23.7175 33.5366C23.7963 33.5152 25.2004 33.1841 26.5152 32.8792C27.1433 32.7345 27.7707 32.5873 28.3976 32.4375C28.7029 32.3637 28.9501 32.3059 28.9551 32.3059ZM29.6283 32.5635L29.7966 32.7529C30.5539 33.5997 31.3269 34.2254 32.2632 34.7723C32.4313 34.8671 32.5575 34.951 32.5469 34.9563C32.5101 34.983 29.2972 36.1238 27.8087 36.6393C27.2998 36.8195 26.7898 36.9964 26.2786 37.1701C26.2733 37.1701 26.2259 37.1387 26.1731 37.1019L26.0786 37.0335L26.2312 36.8127C26.7253 36.0975 27.346 35.3141 28.6978 33.6836L29.6283 32.5635ZM33.8249 35.5663C33.8303 35.561 34.0615 35.6452 34.3454 35.7504C35.0292 36.0082 35.5707 36.1712 36.2966 36.355C37.1905 36.5815 38.4843 36.8023 39.2469 36.8654C39.3625 36.8758 39.4254 36.8865 39.4046 36.9022C39.3676 36.9232 38.5949 37.1808 38.0267 37.3598C37.1221 37.6435 34.3614 38.4588 32.1106 39.1056C31.695 39.2265 31.3376 39.3267 31.3165 39.3317C31.264 39.3424 31.0901 39.2947 31.0901 39.2739C31.0901 39.2633 31.2166 39.1003 31.369 38.9215C32.1263 38.0169 32.8783 37.0074 33.5042 36.05C33.6776 35.7871 33.8249 35.5716 33.8249 35.5663ZM32.8993 35.593C32.9046 35.598 32.5312 36.1976 31.8791 37.2282C31.6005 37.6645 31.2901 38.1589 31.1796 38.3326C31.0744 38.5007 30.9167 38.7638 30.8275 38.9109L30.6748 39.1791L30.596 39.1581C30.4069 39.1056 29.0761 38.6376 28.7239 38.4956C28.3061 38.3292 27.8971 38.1414 27.4986 37.9328C27.0777 37.7066 26.5519 37.3702 26.594 37.3595C26.6047 37.3542 27.3249 37.1597 28.1925 36.9232C30.4961 36.2972 31.7739 35.9344 32.61 35.6715C32.7626 35.6241 32.894 35.5876 32.8993 35.593ZM39.4467 37.1283H39.452C39.4728 37.1808 38.621 39.5472 38.3106 40.2941C38.2425 40.4622 38.2161 40.5046 38.1793 40.4993C38.0898 40.4939 36.8541 40.3203 36.1019 40.21C34.7927 40.0102 32.5943 39.6261 32.0424 39.5001L31.9161 39.4735L32.6993 39.295C34.3825 38.9162 35.1922 38.7111 36.0127 38.4586C37.072 38.1344 38.1071 37.7355 39.11 37.265C39.273 37.1912 39.4097 37.1334 39.4467 37.1283Z" fill="url(#paint0_linear_28_186)"/>
<path d="M35.5393 6.03256C35.4237 6.01684 33.5567 6.68996 32.3524 7.17902C30.7276 7.84176 29.4655 8.47279 28.6872 9.01965C28.3979 9.22476 28.0348 9.58756 27.9773 9.72953C27.9559 9.78678 27.9451 9.84743 27.9453 9.90853L28.6504 10.5763L30.3277 11.1128L34.3193 11.828L38.8839 12.6114L38.9313 12.2172C38.9153 12.2172 38.9049 12.2119 38.8892 12.2119L38.2899 12.117L38.1687 11.9015C37.548 10.8078 36.8645 9.45091 36.465 8.53592C36.1546 7.82604 35.8603 7.00561 35.697 6.41667C35.6078 6.05893 35.5971 6.03789 35.5396 6.03282L35.5393 6.03256ZM35.4551 6.30079H35.4605C35.4658 6.30612 35.4868 6.45342 35.5079 6.62683C35.5971 7.36335 35.7601 8.07323 36.018 8.84092C36.2124 9.41948 36.2124 9.38778 35.9863 9.31932C35.4501 9.17228 33.0466 8.75674 31.3061 8.51488C31.0272 8.47812 30.7907 8.44136 30.7907 8.43603C30.7694 8.41499 32.0474 7.74719 32.61 7.48428C33.3306 7.15292 35.3078 6.32716 35.4549 6.30079H35.4551ZM30.3855 8.65685L30.5907 8.72505C31.7057 9.10383 34.5085 9.6403 36.0547 9.76656C36.2281 9.78227 36.3755 9.79799 36.3805 9.79799C36.3858 9.80332 36.2388 9.88216 36.0494 9.97167C35.3028 10.3449 34.4823 10.8025 33.9142 11.1549C33.7461 11.2598 33.5935 11.344 33.5724 11.344C33.5514 11.344 33.4411 11.323 33.3255 11.3073L33.1151 11.2758L32.5892 10.7604C31.9496 10.1376 31.3062 9.51873 30.6591 8.90378L30.3855 8.65685ZM30.1751 8.81987L30.9167 9.74551C31.3216 10.2556 31.7318 10.7551 31.8213 10.8656C31.9108 10.9759 31.9843 11.0654 31.9793 11.0707C31.9579 11.0864 30.9063 10.8813 30.3491 10.7551C29.7756 10.6237 29.539 10.5606 29.1866 10.4501L28.8973 10.3555V10.2817C28.9027 9.92931 29.3496 9.40349 30.1069 8.86729L30.1751 8.81987ZM36.4753 10.0819C36.4967 10.0819 36.5228 10.1294 36.5859 10.2711C36.7644 10.6656 37.3221 11.7281 37.4588 11.9332C37.5009 12.0014 37.5744 12.0067 36.8328 11.8858C35.0503 11.5965 34.477 11.502 34.477 11.4916C34.477 11.4863 34.5295 11.4492 34.598 11.4125C35.1501 11.1075 35.7077 10.7183 36.202 10.3028C36.323 10.2029 36.4333 10.1083 36.4543 10.0923C36.4596 10.0819 36.47 10.0766 36.4753 10.0819Z" fill="url(#paint1_linear_28_186)"/>
<path d="M28.0138 9.65576C28.0138 9.65576 27.8982 9.84009 28.0085 10.1137C28.0772 10.2817 28.277 10.4868 28.5029 10.6973C28.5029 10.6973 30.8432 12.9796 31.1272 13.3056C32.4207 14.7991 32.9835 16.2716 33.036 18.3017C33.0677 19.6058 32.8202 20.7523 32.2052 22.0828C31.1115 24.4703 28.8028 27.105 25.2425 30.0287L25.7633 29.8555C26.0997 29.6028 26.557 29.3348 27.63 28.7456C30.107 27.3889 32.894 26.1426 36.3124 24.8592C41.2347 23.0082 49.3281 20.8415 53.9347 20.137L54.4131 20.0632L54.3396 19.9476C53.9188 19.2955 53.6297 18.8906 53.2824 18.4594C52.2728 17.2077 51.0475 16.1928 49.5489 15.3513C47.4872 14.1998 44.8208 13.3003 41.4448 12.6325C40.8087 12.5062 39.4097 12.2643 38.2739 12.0909C36.378 11.7993 34.4848 11.4907 32.5944 11.1653C31.979 11.0601 31.0587 10.9024 30.4487 10.7711C30.1331 10.7026 29.5284 10.5606 29.0551 10.3976C28.6766 10.2503 28.1297 10.1027 28.0138 9.65576ZM29.3707 10.9708C29.3761 10.9655 29.46 10.9969 29.5705 11.034C29.7703 11.1022 30.0281 11.181 30.3331 11.2652C30.5639 11.3287 30.7953 11.39 31.0273 11.4492C31.3429 11.5281 31.6058 11.6019 31.6109 11.6019C31.6479 11.6386 32.1791 13.337 32.3578 13.9891C32.426 14.2366 32.4788 14.4467 32.4734 14.4467C32.4681 14.4521 32.4103 14.3626 32.3421 14.2416C31.7268 13.1583 30.7537 12.0592 29.6283 11.1757C29.4813 11.0707 29.3707 10.9762 29.3707 10.9708ZM31.958 11.686C31.9846 11.686 32.1002 11.7018 32.2419 11.7332C33.1362 11.933 34.74 12.2382 35.7655 12.4116C35.9389 12.438 36.0758 12.4694 36.0758 12.4801C36.0758 12.4908 36.0127 12.5273 35.9336 12.5693C35.7605 12.6588 35.0607 13.0741 34.8295 13.2321C34.2456 13.621 33.7198 14.0418 33.3413 14.4206C33.2474 14.5144 33.1526 14.6073 33.057 14.6992C33.057 14.6992 33.0256 14.6097 32.9992 14.4995C32.8101 13.7683 32.4156 12.6849 32.0579 11.9226C32.0001 11.8017 31.9527 11.6911 31.9527 11.6807C31.9527 11.6914 31.9527 11.686 31.958 11.686ZM36.5122 12.5536C36.5439 12.5643 36.5963 12.7427 36.7013 13.1372C36.8987 13.9242 36.9838 14.7352 36.9541 15.546C36.9434 15.7669 36.9328 15.972 36.9224 15.9983L36.9064 16.0508L36.6331 15.9613C36.0705 15.7828 35.1555 15.5143 34.3719 15.2935C33.9249 15.1726 33.5621 15.062 33.5621 15.0517C33.5621 15.02 34.2142 14.3679 34.4928 14.1207C35.0239 13.6527 36.4647 12.5379 36.5122 12.5536ZM36.875 12.6061C36.8909 12.5904 39.0523 12.9638 40.0357 13.1532C40.7666 13.2952 41.8289 13.516 41.8921 13.5421C41.9235 13.5528 41.8132 13.6159 41.4605 13.7739C40.0725 14.3996 39.0419 14.9619 38.0164 15.6459C37.7481 15.8244 37.522 15.972 37.5166 15.972C37.5113 15.972 37.506 15.8193 37.506 15.6353C37.506 14.6364 37.3062 13.6266 36.9381 12.7744C36.9013 12.6903 36.8696 12.6114 36.875 12.6061ZM42.4653 13.7107C42.4813 13.7265 42.4126 14.1524 42.3494 14.4046C42.1603 15.1883 41.6502 16.3508 41.0245 17.4445C40.9139 17.6389 40.8141 17.7966 40.8034 17.8019C40.7928 17.8073 40.651 17.7284 40.488 17.6336C39.878 17.2761 39.1839 16.9394 38.4263 16.6241C38.2161 16.5346 38.0321 16.461 38.0267 16.4504C37.99 16.4189 39.6833 15.2988 40.5773 14.7624C41.2871 14.3311 42.4443 13.6894 42.4653 13.7107ZM42.8649 13.7736C42.9123 13.7736 43.8693 14.0368 44.3688 14.1838C45.6048 14.5519 47.0245 15.0727 47.9502 15.4933L48.3337 15.667L48.0658 15.7301C45.8045 16.2506 43.8693 16.8502 42.0023 17.6075C41.85 17.6706 41.7131 17.7231 41.7027 17.7231C41.692 17.7231 41.7448 17.6022 41.8132 17.4549C42.3758 16.2613 42.7386 15.0149 42.8281 13.9523C42.8334 13.8524 42.8491 13.7736 42.8649 13.7736ZM33.3359 15.9613C33.3517 15.9456 34.0826 16.1193 34.4771 16.2296C35.0764 16.3979 36.3491 16.8236 36.3491 16.8555C36.3491 16.8609 36.2072 16.9815 36.0391 17.1288C35.35 17.7021 34.6875 18.3067 33.8932 19.0747C33.6566 19.3008 33.4569 19.4849 33.4465 19.4849C33.4361 19.4849 33.4305 19.4532 33.4358 19.4111C33.5568 18.5275 33.5307 17.392 33.3623 16.2402C33.3463 16.0929 33.3309 15.9666 33.3359 15.9613ZM48.6971 15.9773C48.7075 15.9877 48.3604 16.5345 48.1396 16.8449C47.8239 17.2972 47.3612 17.8968 46.3146 19.2113C45.8536 19.7901 45.3943 20.3704 44.937 20.9521C44.7265 21.215 44.5529 21.4358 44.5475 21.4358C44.5422 21.4358 44.4743 21.3412 44.4005 21.2254C43.8115 20.3421 43.1067 19.5691 42.2706 18.8749C42.1431 18.767 42.0134 18.6618 41.8817 18.5592C41.8236 18.5172 41.7762 18.4751 41.7762 18.4697C41.7762 18.454 42.6701 18.0702 43.3486 17.7966C44.5371 17.3129 46.1567 16.7343 47.3716 16.3609C48.0082 16.1611 48.6864 15.9666 48.6971 15.9773ZM49.102 16.0822C49.1227 16.0769 49.249 16.1403 49.4016 16.2296C50.6797 16.9605 51.9311 17.9018 52.9199 18.8693C53.1985 19.1431 53.8873 19.8583 53.8769 19.8634C53.8769 19.8634 53.6348 19.8847 53.3511 19.9055C51.137 20.0738 48.3026 20.5418 45.5784 21.199C45.4597 21.2274 45.3405 21.2538 45.2209 21.2781C45.2103 21.2781 45.4154 21.073 45.6732 20.8258C47.272 19.2848 48.0029 18.312 48.8652 16.5766C48.9861 16.3191 49.0916 16.0982 49.102 16.0822C49.0966 16.0822 49.0966 16.0822 49.102 16.0822ZM37.3904 17.2815C37.4642 17.2972 38.1477 17.6179 38.6631 17.8755C39.1365 18.1123 39.8463 18.4908 39.8831 18.5225C39.8884 18.5278 39.6359 18.6591 39.3258 18.8118C38.3989 19.2728 37.4918 19.7728 36.607 20.3104C36.3545 20.463 36.144 20.5893 36.139 20.5893C36.1177 20.5893 36.123 20.568 36.265 20.3104C36.7383 19.4481 37.1171 18.4173 37.3326 17.4128C37.3536 17.3339 37.3747 17.2815 37.3904 17.2815ZM36.7069 17.4074C36.7226 17.4234 36.5439 18.0702 36.4333 18.4223C36.2175 19.0904 35.8547 19.9265 35.5026 20.5576C35.4184 20.7049 35.2922 20.9204 35.2237 21.0413L35.0924 21.2517L34.7978 20.9678C34.456 20.6364 34.1771 20.4313 33.8197 20.2472C33.6777 20.1737 33.5674 20.1106 33.5674 20.1002C33.5674 20.0581 34.4667 19.243 35.1555 18.6538C35.6496 18.2279 36.6912 17.3917 36.7069 17.4074ZM40.8876 19.1271L41.1454 19.2955C41.7341 19.6793 42.4283 20.1894 42.9594 20.6364C43.2594 20.8836 43.8376 21.4044 43.9535 21.5304L44.0164 21.5988L43.5907 21.7197C41.1822 22.3875 39.3205 22.9818 37.1485 23.7815C36.9067 23.8707 36.7015 23.9442 36.6858 23.9442C36.6541 23.9442 36.6278 23.9706 37.1696 23.4709C38.5579 22.1931 39.7885 20.7837 40.7035 19.4114L40.8876 19.1271ZM39.7885 19.4007C39.7992 19.4114 39.0786 20.4262 38.6474 20.9992C38.132 21.683 37.217 22.8292 36.5857 23.5761C36.323 23.8864 36.0969 24.144 36.0862 24.1493C36.0702 24.1546 36.0652 24.0758 36.0652 23.9549C36.0652 23.3182 35.9022 22.6401 35.6182 22.0615C35.4973 21.8196 35.4762 21.7618 35.5026 21.7355C35.6025 21.6462 37.1328 20.7731 38.1003 20.2526C38.7526 19.9055 39.7725 19.3901 39.7885 19.4007ZM33.1412 21.0309C33.1572 21.0309 33.2781 21.094 33.4148 21.1676C33.7349 21.3419 34.0378 21.5461 34.3194 21.7775C34.3298 21.7882 34.1931 21.8987 34.0144 22.0301C33.4389 22.4454 32.8726 22.8732 32.3157 23.3132C31.8528 23.6813 31.8373 23.692 31.8895 23.6131C32.2369 23.082 32.4103 22.782 32.5944 22.3985C32.7636 22.0412 32.9111 21.6741 33.0363 21.2991C33.0781 21.1465 33.1308 21.0309 33.1412 21.0309ZM34.9137 22.4192C34.9398 22.4139 34.9715 22.4613 35.1134 22.6718C35.4131 23.1185 35.6446 23.7181 35.7024 24.2021L35.713 24.3073L34.9925 24.5859C33.7041 25.0854 32.5155 25.5797 31.7108 25.9479C31.4849 26.0531 31.0902 26.2425 30.8328 26.3687C30.575 26.5001 30.3646 26.5999 30.3646 26.5949C30.3646 26.5898 30.5276 26.4686 30.7276 26.3213C32.3 25.1802 33.662 23.9285 34.6822 22.6768C34.7927 22.5455 34.8926 22.4246 34.9033 22.4192H34.9137ZM34.0986 22.619C34.1196 22.6403 33.52 23.3185 33.1098 23.7338C32.0949 24.77 31.0904 25.5797 29.8441 26.3687C29.6864 26.4686 29.5444 26.5579 29.5284 26.5685C29.4917 26.5896 29.5391 26.5368 30.0859 25.9425C30.4066 25.5983 30.7102 25.2385 30.9956 24.8645C31.1954 24.6069 31.2324 24.5702 31.5217 24.3651C32.2947 23.8076 34.0775 22.598 34.0986 22.619Z" fill="url(#paint2_radial_28_186)"/>
<path d="M11.3262 44.3943C11.2287 44.3943 11.1318 44.4037 11.0358 44.4037C9.07641 44.508 7.75489 45.3704 6.98215 47.0546C6.32115 48.5774 6.3935 50.5679 6.98954 52.1005C7.68254 53.5978 8.80276 54.3882 10.6726 54.6865C11.0678 54.7514 11.3331 54.9685 12.0999 55.8628L13.0425 56.9678H14.7523L13.6154 55.821C12.9868 55.1929 12.4784 54.6456 12.4784 54.5974C12.4784 54.5497 12.7186 54.4443 13.01 54.3557C13.9692 54.0653 14.7656 53.3241 15.3233 52.1881C15.7741 51.2761 15.8391 50.9941 15.904 49.8591C16.0729 46.4812 14.2916 44.3692 11.3257 44.3934L11.3262 44.3943ZM12.8249 53.2281C11.9931 53.6307 10.7853 53.7115 9.9968 53.422C9.18174 53.1228 8.39227 52.2762 8.03741 51.3179C7.64316 50.2696 7.69927 48.3363 8.15061 47.4656C8.8756 46.0791 9.83537 45.4417 11.2366 45.4417C13.3166 45.4417 14.4998 46.715 14.6539 49.1085C14.7759 51.1068 14.1071 52.606 12.8259 53.2276L12.8249 53.2281ZM42.3611 47.28C41.644 47.28 41.0952 47.5704 40.7251 48.1424L40.4347 48.5952V47.4174H39.1939V54.4783H40.4342V52.2211C40.4342 50.1574 40.4603 49.9162 40.7487 49.3517C41.1459 48.577 41.83 48.1911 42.491 48.3757L42.934 48.5051V47.2815H42.3616L42.3611 47.28ZM35.0688 47.2151C34.8138 47.2176 34.5597 47.2473 34.3109 47.3037C32.6502 47.7383 31.7141 49.328 31.7712 50.9636C31.7712 52.3333 32.0379 53.0185 32.6985 53.7366C34.0525 54.8474 35.2775 54.936 36.9298 54.34C37.2113 54.2199 37.5185 54.0811 37.5185 54.0811V52.9702L36.9298 53.2754C35.5925 53.8576 34.585 53.8576 33.7778 53.172C33.2635 52.6478 33.0366 52.0193 32.9327 51.3017H37.9373V50.3503C37.9373 48.4091 36.7689 47.1836 35.0679 47.2151H35.0688ZM33.045 50.3109C33.045 50.3109 33.23 49.1001 33.9161 48.6257C34.2315 48.4015 34.6086 48.2806 34.9955 48.2797C35.3671 48.2797 35.7372 48.3998 36.0434 48.634C36.6719 49.1174 36.7767 50.3026 36.7767 50.3026H33.0455L33.045 50.3109ZM3.12144 49.0381C1.7758 48.2226 1.17877 47.6349 1.25211 46.9414C1.4608 45.0239 3.83019 45.2891 5.14285 46.0146L5.1522 44.7246C5.1522 44.7246 4.42672 44.4101 3.38673 44.3934C1.79155 44.3697 0.759921 44.8924 0.277085 45.957C-0.433142 47.5286 0.195382 48.7133 2.46732 50.0353C3.74258 50.777 4.30613 51.4213 4.30613 52.1237C4.30613 53.5746 2.5569 54.0816 0.752046 53.171C0.380936 52.986 0.0664286 52.8314 0.0492021 52.8314C-0.0157667 53.2429 0.0177021 54.2273 0.0177021 54.2273C0.0177021 54.2273 0.572397 54.4601 1.40419 54.621C3.46646 55.032 5.34416 54.0644 5.52134 52.4933C5.67589 51.0182 5.14236 50.244 3.12144 49.0367V49.0381ZM53.3467 47.1988C53.0886 47.2023 52.8315 47.2322 52.5794 47.2879C50.9207 47.7225 49.9861 49.3123 50.0495 50.9483C50.0495 52.3161 50.3153 52.9943 50.9758 53.7115C52.3298 54.8238 53.5549 54.9124 55.2151 54.3159C55.4114 54.2318 55.6071 54.1463 55.8022 54.0594V52.9466L55.2146 53.2532C53.8743 53.834 52.8668 53.834 52.0626 53.1479C51.5453 52.6247 51.3209 52.0036 51.216 51.2781H56.2127V50.3262C56.2127 48.3948 55.0443 47.1678 53.3438 47.2008L53.3467 47.1988ZM51.3223 50.2947C51.3223 50.2947 51.5094 49.0859 52.194 48.6016C52.509 48.3774 52.8858 48.2563 53.2724 48.2551C53.6425 48.2551 54.0146 48.3752 54.3207 48.6094C54.9493 49.0933 55.0546 50.2863 55.0546 50.2863H51.3238L51.3223 50.2947ZM28.5715 49.0534C27.2258 48.2403 26.6303 47.6507 26.7026 46.9567C26.9113 45.0386 29.2812 45.3049 30.5934 46.0299L30.6032 44.7404C30.6032 44.7404 29.8772 44.4254 28.8377 44.4106C27.2421 44.387 26.2109 44.9102 25.7271 45.9748C25.0179 47.5458 25.6548 48.731 27.9188 50.0525C29.1926 50.7938 29.7562 51.4297 29.7562 52.132C29.7562 53.583 28.0074 54.0978 26.2026 53.1789C25.8329 52.9943 25.5184 52.8418 25.5002 52.8418C25.4357 53.2527 25.4687 54.2376 25.4687 54.2376C25.4687 54.2376 26.017 54.462 26.8459 54.6314C28.9106 55.0433 30.7883 54.0762 30.9655 52.5051C31.1185 51.0374 30.5865 50.2642 28.5715 49.0549V49.0534ZM60.639 47.2633C59.9218 47.2633 59.3667 47.5537 59.0029 48.1266L58.7125 48.5774V47.4021H57.4717V54.4611H58.712V52.2044C58.712 50.1411 58.7367 49.899 59.0261 49.3349C59.4238 48.5617 60.1079 48.1748 60.7684 48.3609L61.2124 48.4898V47.2633H60.639ZM18.7006 49.013V44.5154H17.4495V54.4768H22.712V53.3005H18.7006V49.013ZM47.6398 50.4148L46.6087 53.0987L45.6164 50.3995L44.6094 47.409H43.3282C44.1687 49.7799 45.0498 52.1362 45.9713 54.4768C46.3665 54.4857 46.7617 54.4768 47.1565 54.4768L48.5494 50.9793L49.9678 47.41H48.7438C48.7438 47.41 48.2024 48.8275 47.6388 50.4153L47.6398 50.4148ZM21.5849 41.801C21.7862 41.801 21.9545 41.7365 22.0928 41.5977C22.1602 41.5335 22.2137 41.456 22.2497 41.3701C22.2857 41.2842 22.3035 41.1918 22.302 41.0987C22.302 40.8969 22.2301 40.729 22.0928 40.5996C22.0268 40.5355 21.9486 40.4853 21.8629 40.4519C21.7772 40.4185 21.6857 40.4026 21.5937 40.4052C21.3905 40.4052 21.2226 40.4701 21.0858 40.607C20.947 40.7438 20.884 40.9121 20.884 41.106C20.884 41.3093 20.949 41.4776 21.0858 41.6051C21.2152 41.7346 21.3831 41.799 21.5849 41.799V41.801ZM21.1409 40.6547C21.261 40.5351 21.4072 40.479 21.5937 40.479C21.7694 40.479 21.9156 40.5351 22.0377 40.6547C22.1578 40.7753 22.2227 40.9215 22.2227 41.0987C22.2239 41.1824 22.2082 41.2655 22.1764 41.343C22.1445 41.4205 22.0974 41.4907 22.0377 41.5495C21.9156 41.6696 21.7694 41.7267 21.5937 41.7267C21.4156 41.7267 21.2704 41.6716 21.1508 41.5495C21.0911 41.4907 21.0439 41.4205 21.0121 41.343C20.9803 41.2655 20.9645 41.1824 20.9657 41.0987C20.9657 40.9215 21.0203 40.7753 21.1409 40.6547ZM21.4392 41.1636H21.5209C21.5785 41.1636 21.6346 41.2187 21.6828 41.3241L21.7798 41.5421H21.9324L21.8123 41.3C21.763 41.203 21.7153 41.1469 21.6587 41.1311C21.7301 41.1144 21.7867 41.0903 21.827 41.0425C21.8465 41.0205 21.8615 40.9948 21.8709 40.9669C21.8804 40.939 21.8842 40.9095 21.8821 40.8801C21.8841 40.8482 21.8787 40.8162 21.8662 40.7868C21.8537 40.7573 21.8346 40.7311 21.8103 40.7103C21.7547 40.6641 21.6661 40.6394 21.5514 40.6394H21.295V41.5421H21.4239V41.1631L21.4392 41.1636ZM21.4392 40.7438H21.5524C21.6336 40.7438 21.6907 40.7605 21.7227 40.7846C21.7527 40.8083 21.7616 40.8398 21.7616 40.8969C21.7616 41.0017 21.6966 41.0504 21.5765 41.0504H21.4382V40.7438H21.4392ZM0.76878 41.0834C0.76878 40.7684 0.759429 40.5346 0.752046 40.3973H0.759429C0.791421 40.5597 0.83178 40.6808 0.864265 40.7615L2.0652 43.4454H2.267L3.46794 40.7374C3.50091 40.6636 3.53291 40.5523 3.57277 40.3978H3.58212C3.56129 40.6262 3.55046 40.8555 3.54964 41.0849V43.4533H3.96111V39.9322H3.4453L2.34083 42.3823C2.30014 42.4791 2.2437 42.6238 2.17151 42.8164H2.15478C2.11194 42.6732 2.05831 42.5336 1.99433 42.3985L0.914468 39.9243H0.366663V43.4459H0.76189V41.0849L0.76878 41.0834ZM4.86181 41.0893H5.21717V43.2825H4.86181V41.0893ZM5.03949 40.2851C5.0737 40.2863 5.10778 40.2803 5.13956 40.2676C5.17134 40.2549 5.20012 40.2357 5.22406 40.2112C5.24948 40.1876 5.26983 40.1591 5.28388 40.1274C5.29792 40.0956 5.30537 40.0614 5.30576 40.0267C5.30723 39.9918 5.30078 39.957 5.28688 39.9249C5.27299 39.8929 5.25202 39.8644 5.22554 39.8416C5.2008 39.8175 5.17153 39.7986 5.13942 39.786C5.10732 39.7733 5.07302 39.7671 5.03851 39.7678C5.0043 39.7666 4.97022 39.7725 4.93844 39.7852C4.90665 39.7979 4.87788 39.8171 4.85394 39.8416C4.82877 39.8655 4.80863 39.8942 4.79468 39.926C4.78074 39.9577 4.77327 39.992 4.77273 40.0267C4.77273 40.1069 4.79733 40.163 4.85394 40.2112C4.90359 40.2588 4.96975 40.2853 5.03851 40.2851H5.03949ZM7.74751 43.3307V42.9444C7.55309 43.0896 7.34391 43.1614 7.12784 43.1614C6.86944 43.1614 6.65928 43.0728 6.50621 42.903C6.35363 42.7347 6.27193 42.5009 6.27193 42.2095C6.27193 41.9044 6.35363 41.6622 6.52196 41.4776C6.68373 41.3005 6.89323 41.2117 7.15048 41.2114C7.36016 41.2114 7.56146 41.2763 7.74751 41.4058V40.9943C7.57819 40.9057 7.38526 40.8649 7.16673 40.8649C6.76412 40.8649 6.44961 40.9943 6.21483 41.2438C5.98203 41.4934 5.86194 41.8325 5.86194 42.242C5.86194 42.6062 5.96628 42.9124 6.18383 43.1462C6.41023 43.3863 6.69964 43.5084 7.05401 43.5084C7.32865 43.5005 7.55309 43.4434 7.74751 43.3307ZM8.76289 42.1613C8.76289 41.8724 8.82786 41.6386 8.94795 41.4772C9.0605 41.3324 9.19749 41.2599 9.35893 41.2596C9.49576 41.2596 9.59321 41.2842 9.66408 41.3408V40.921C9.60896 40.8969 9.52824 40.889 9.4239 40.889C9.2787 40.889 9.14975 40.9382 9.03556 41.0278C8.91547 41.1228 8.81949 41.268 8.76289 41.4525H8.75354V40.9377H8.35191V43.4518H8.75452V42.1618L8.76289 42.1613ZM11.0762 43.5015C11.4552 43.5015 11.7603 43.3795 11.9867 43.1373C12.2121 42.8965 12.3249 42.5742 12.3249 42.1706C12.3249 41.7597 12.2215 41.4452 12.0108 41.2114C11.8017 40.9776 11.5118 40.8644 11.1328 40.8644C10.7538 40.8644 10.4486 40.9776 10.2222 41.1956C9.98007 41.4358 9.85259 41.7754 9.85259 42.2105C9.85259 42.5895 9.95595 42.9035 10.1745 43.1373C10.3999 43.3795 10.6982 43.5005 11.0767 43.5005L11.0762 43.5015ZM10.5033 41.4535C10.6568 41.2918 10.8583 41.211 11.1077 41.2114C11.3666 41.2114 11.5605 41.2916 11.7047 41.4535C11.8499 41.6228 11.9222 41.8635 11.9222 42.1869C11.9222 42.493 11.8573 42.7347 11.7204 42.8961C11.5841 43.0654 11.3823 43.155 11.116 43.155C10.8576 43.155 10.6568 43.0654 10.5033 42.8961C10.3507 42.7263 10.2778 42.493 10.2778 42.1864C10.2621 41.8812 10.3428 41.6322 10.5033 41.4535ZM14.0893 43.2825C14.2429 43.1457 14.3241 42.9773 14.3241 42.7667C14.3259 42.6816 14.3104 42.5971 14.2786 42.5181C14.2468 42.4392 14.1993 42.3675 14.1391 42.3075C14.0411 42.2105 13.89 42.1224 13.6705 42.0338C13.4766 41.9526 13.3565 41.8807 13.2915 41.8241C13.257 41.7907 13.2299 41.7503 13.2119 41.7057C13.194 41.6611 13.1855 41.6133 13.1872 41.5652C13.1872 41.4609 13.228 41.3807 13.3077 41.3157C13.389 41.2512 13.4923 41.2197 13.6311 41.2197C13.8477 41.2197 14.0342 41.2768 14.2035 41.3984V40.9948C14.0354 40.9127 13.8502 40.8717 13.6631 40.8752C13.4047 40.8752 13.1862 40.9466 13.0257 41.0839C12.9461 41.1455 12.882 41.2249 12.8386 41.3158C12.7952 41.4066 12.7736 41.5064 12.7757 41.6071C12.7757 41.7917 12.8313 41.9452 12.9366 42.0579C13.0252 42.1539 13.1768 42.2523 13.388 42.34C13.5898 42.4285 13.7261 42.5088 13.799 42.5737C13.8328 42.6037 13.8597 42.6408 13.8777 42.6823C13.8957 42.7238 13.9045 42.7687 13.9033 42.8139C13.9033 43.0487 13.7424 43.1698 13.4283 43.1698C13.1865 43.1701 12.9686 43.09 12.7747 42.9296V43.3637C12.9504 43.4695 13.1611 43.5173 13.3944 43.5173C13.6926 43.5015 13.9264 43.4287 14.0874 43.2835L14.0893 43.2825ZM16.0079 40.8649C15.6289 40.8649 15.3237 40.9776 15.0973 41.1956C14.8572 41.4363 14.7282 41.7754 14.7282 42.2105C14.7282 42.5895 14.8325 42.9035 15.0496 43.1373C15.276 43.3795 15.5738 43.501 15.9528 43.501C16.3406 43.501 16.6364 43.379 16.8628 43.1368C17.0892 42.8956 17.2024 42.5733 17.2024 42.1697C17.2024 41.7587 17.0966 41.4447 16.8874 41.2104C16.6699 40.9766 16.3795 40.8639 16.0099 40.8639L16.0079 40.8649ZM16.79 42.1864C16.79 42.493 16.725 42.7347 16.5882 42.8961C16.4514 43.0654 16.25 43.155 15.9838 43.155C15.7249 43.155 15.5246 43.0654 15.371 42.8961C15.2184 42.7263 15.1456 42.493 15.1456 42.1864C15.1456 41.863 15.2258 41.6135 15.3877 41.4452C15.5403 41.284 15.7418 41.2033 15.9921 41.203C16.2417 41.203 16.4425 41.2842 16.5877 41.4452C16.7166 41.6223 16.79 41.864 16.79 42.1864ZM17.8787 43.4444H18.2808V41.268H18.8695V40.9293H18.2808V40.5415C18.2808 40.1881 18.4171 40.0109 18.7002 40.0109C18.7951 40.0109 18.8926 40.035 18.9645 40.0754V39.7127C18.8926 39.6802 18.7951 39.6728 18.6741 39.6728C18.4575 39.6728 18.2803 39.7378 18.1346 39.8746C17.9653 40.035 17.8757 40.2437 17.8757 40.5267V40.9387H17.4505V41.2773H17.8757V43.4454L17.8787 43.4444ZM19.5305 42.7583C19.5305 43.2505 19.747 43.5005 20.191 43.5005C20.3519 43.5005 20.473 43.4749 20.57 43.4169V43.0723C20.4949 43.1271 20.404 43.1556 20.3111 43.1535C20.1743 43.1535 20.0783 43.1211 20.0222 43.0482C19.9646 42.9759 19.9321 42.8543 19.9321 42.686V41.267H20.57V40.9289H19.9321V40.1876C19.7938 40.2354 19.658 40.2762 19.529 40.3166V40.9284H19.0949V41.267H19.529V42.7578L19.5305 42.7583ZM62.7839 47.3928C62.7179 47.3288 62.6397 47.2786 62.554 47.2453C62.4683 47.212 62.3768 47.1962 62.2848 47.1988C62.0816 47.1988 61.9132 47.2638 61.7764 47.4021C61.6396 47.5379 61.5746 47.7073 61.5746 47.9012C61.5746 48.103 61.6396 48.2703 61.7754 48.4003C61.9116 48.5295 62.0811 48.5942 62.2839 48.5942C62.4842 48.5942 62.653 48.5297 62.7923 48.3924C62.9281 48.2546 63 48.0946 63 47.8938C62.9926 47.6905 62.9198 47.5222 62.7829 47.3932L62.7839 47.3928ZM62.7194 48.3446C62.6614 48.4028 62.5921 48.4485 62.5157 48.4788C62.4394 48.5091 62.3576 48.5234 62.2755 48.5208C62.0998 48.5208 61.9541 48.4647 61.832 48.3446C61.7723 48.2855 61.7252 48.2149 61.6934 48.1371C61.6616 48.0593 61.6458 47.9759 61.647 47.8918C61.647 47.7161 61.7026 47.5704 61.8241 47.4484C61.9442 47.3283 62.0899 47.2727 62.2755 47.2727C62.4512 47.2727 62.5974 47.3283 62.7194 47.4484C62.839 47.5704 62.904 47.7161 62.904 47.8913C62.904 48.0789 62.8484 48.2226 62.7194 48.3446ZM62.3572 47.9337C62.4207 47.9206 62.4792 47.8899 62.526 47.8451C62.5652 47.8003 62.5851 47.742 62.5816 47.6826C62.582 47.6098 62.558 47.5534 62.5098 47.5133C62.4541 47.4671 62.3646 47.442 62.2509 47.442H61.9935V48.3437H62.1229V47.9647H62.2036C62.2588 47.9647 62.3144 48.0203 62.3646 48.1256L62.4605 48.3432H62.6141L62.494 48.1005C62.4522 47.9952 62.4039 47.947 62.3552 47.9312L62.3572 47.9337ZM62.2681 47.8525H62.1293V47.5473H62.243C62.3237 47.5473 62.3798 47.5621 62.4123 47.5867C62.4448 47.6113 62.4517 47.6423 62.4517 47.6999C62.4517 47.8042 62.3877 47.8525 62.2671 47.8525H62.2681ZM39.783 40.8255H39.8952V39.9223H40.194V39.8091H39.4842V39.9223H39.783V40.8255ZM40.4667 40.1463C40.4667 40.0592 40.4667 39.9873 40.4603 39.9464C40.4676 39.9942 40.4844 40.0267 40.4918 40.0508L40.8383 40.8255H40.8934L41.2414 40.0429C41.2507 40.0193 41.2581 39.9878 41.2734 39.9464C41.266 40.0267 41.266 40.0911 41.266 40.1404V40.8245H41.3861V39.8091H41.2414L40.9268 40.51C40.9195 40.5346 40.8944 40.5838 40.8791 40.6394H40.8693C40.8634 40.607 40.8466 40.5745 40.8235 40.5193L40.509 39.8096H40.3466V40.826H40.4598V40.1477L40.4667 40.1463Z" fill="#231F1F"/>
</g>
<defs>
<linearGradient id="paint0_linear_28_186" x1="27.9096" y1="37.3386" x2="30.4245" y2="35.8526" gradientUnits="userSpaceOnUse">
<stop stop-color="#909CA9"/>
<stop offset="1" stop-color="#EDEDEE"/>
</linearGradient>
<linearGradient id="paint1_linear_28_186" x1="27.9672" y1="9.32376" x2="29.9907" y2="9.32376" gradientUnits="userSpaceOnUse">
<stop stop-color="#939FAB"/>
<stop offset="1" stop-color="#DCDEE1"/>
</linearGradient>
<radialGradient id="paint2_radial_28_186" cx="0" cy="0" r="1" gradientUnits="userSpaceOnUse" gradientTransform="translate(38.1805 18.6008) rotate(-171.461) scale(2.61027 5.22195)">
<stop stop-color="#EE352C"/>
<stop offset="1" stop-color="#A91D22"/>
</radialGradient>
<clipPath id="clip0_28_186">
<rect width="63" height="63" fill="white"/>
</clipPath>
</defs>
</svg>
