<svg width="59" height="36" viewBox="0 0 59 36" fill="none" xmlns="http://www.w3.org/2000/svg">
<g clip-path="url(#clip0_28_153)">
<path d="M29.5 0C21.6333 0 16.7167 3.98961 14.75 11.9688C17.7 7.97922 21.1417 6.48312 25.075 7.48052C27.3191 8.04951 28.9231 9.70107 30.6987 11.5289C33.5911 14.5068 36.9384 17.9532 44.25 17.9532C52.1167 17.9532 57.0333 13.9636 59 5.98442C56.05 9.97403 52.6083 11.4701 48.675 10.4727C46.4309 9.90374 44.8269 8.25218 43.0513 6.42436C40.1589 3.44642 36.8116 0 29.5 0ZM14.75 17.9532C6.88333 17.9532 1.96667 21.9429 0 29.9221C2.95 25.9325 6.39167 24.4364 10.325 25.4338C12.5691 26.0028 14.1731 27.6543 15.9487 29.4821C18.841 32.4601 22.1884 35.9065 29.5 35.9065C37.3667 35.9065 42.2833 31.9169 44.25 23.9377C41.3 27.9273 37.8583 29.4234 33.925 28.426C31.6809 27.857 30.0769 26.2054 28.3013 24.3776C25.409 21.3997 22.0616 17.9532 14.75 17.9532Z" fill="url(#paint0_linear_28_153)"/>
</g>
<defs>
<linearGradient id="paint0_linear_28_153" x1="-163.902" y1="1149.01" x2="4967.58" y2="4065.99" gradientUnits="userSpaceOnUse">
<stop stop-color="#2298BD"/>
<stop offset="1" stop-color="#0ED7B5"/>
</linearGradient>
<clipPath id="clip0_28_153">
<rect width="59" height="36" fill="white"/>
</clipPath>
</defs>
</svg>
